<svg xmlns="http://www.w3.org/2000/svg" width="500" height="500"><path fill="none" d="M19 399h465v45H19z"/><text transform="translate(70 436)"><tspan x="0" y="0" fill="#302B45" font-family="'Exo-Medium'" font-size="52.7">ABSTRACT</tspan><tspan x="230.5" y="0" fill="#302B45" font-family="'Exo-Black'" font-size="52.7">LOGO</tspan></text><path fill="none" d="M128 454h247v29H128z"/><text transform="translate(140 474)" fill="#C35CFC" font-family="'Poppins-Medium'" font-size="28">SLOGAN HERE</text><g><linearGradient id="a" gradientUnits="userSpaceOnUse" x1="297.8" y1="66.8" x2="211" y2="308.6"><stop offset="0" stop-color="#534b78"/><stop offset=".2" stop-color="#474066"/><stop offset=".7" stop-color="#302b45"/><stop offset="1" stop-color="#272338"/></linearGradient><path fill="url(#a)" d="M398 167L281 50a42 42 0 00-60 0L104 167a43 43 0 000 60l117 116a42 42 0 0060 0l117-116a42 42 0 000-60zm-14 46L268 330c-5 4-11 6-17 6s-12-2-16-6L118 213c-9-9-9-24 0-33L235 64a23 23 0 0133 0l116 116c9 9 9 24 0 33z"/><linearGradient id="b" gradientUnits="userSpaceOnUse" x1="240.6" y1="256" x2="368.1" y2="122.4"><stop offset="0" stop-color="#c43aff"/><stop offset="1" stop-color="#34a5d6"/></linearGradient><path fill="url(#b)" d="M337 79v10c24 0 27 20 23 36-6 32-35 51-83 92-21 17-40 48-17 86 8-18 35-39 77-75 41-35 55-55 56-89 1-31-20-57-56-60z"/><linearGradient id="c" gradientUnits="userSpaceOnUse" x1="142.1" y1="289.1" x2="331.1" y2="91"><stop offset="0" stop-color="#c43aff"/><stop offset="1" stop-color="#34a5d6"/></linearGradient><path fill="url(#c)" d="M292 164c-65 57-125 87-130 128-4 34 24 57 52 45l7 6c-46 25-114-14-106-83 8-64 78-103 145-155 36-27 52-47 42-64-5-9-20-12-37-1-4-2-9-3-13-3 29-25 61-14 74-2 22 21 32 72-34 129z"/><linearGradient id="d" gradientUnits="userSpaceOnUse" x1="200.2" y1="147.6" x2="305.8" y2="189.8"><stop offset="0" stop-color="#fff"/><stop offset="1" stop-color="#fff" stop-opacity="0"/></linearGradient><path fill="url(#d)" d="M260 292c-15-34 6-59 20-71l21-18c37-30 59-48 65-77 1-8 3-23-6-33l-4-4c20 8 32 26 32 50-2 31-14 50-54 85l-21 18c-25 21-43 37-53 50z"/><linearGradient id="e" gradientUnits="userSpaceOnUse" x1="-3" y1="133.4" x2="188.9" y2="175.2"><stop offset="0" stop-color="#fff"/><stop offset="1" stop-color="#fff" stop-opacity="0"/></linearGradient><path fill="url(#e)" d="M191 345c-19 0-39-9-53-24a75 75 0 01-17-60c6-51 54-87 109-127l33-25c36-27 56-49 44-71-4-6-12-10-21-10l5-1c14 0 26 6 32 12 9 9 15 23 14 39 0 19-9 48-48 82-19 17-38 31-55 44-41 32-73 57-77 88-2 15 2 29 11 39 7 8 17 13 28 14h-5z"/><linearGradient id="f" gradientUnits="userSpaceOnUse" x1="494.2" y1="202" x2="365.7" y2="194.2"><stop offset="0" stop-color="#fff"/><stop offset="1" stop-color="#fff" stop-opacity="0"/></linearGradient><path fill="url(#f)" d="M260 292c-15-34 6-59 20-71l21-18c37-30 59-48 65-77 1-8 3-23-6-33l-4-4c20 8 32 26 32 50-2 31-14 50-54 85l-21 18c-25 21-43 37-53 50z"/><linearGradient id="g" gradientUnits="userSpaceOnUse" x1="425.9" y1="229.8" x2="281.8" y2="196.1"><stop offset="0" stop-color="#fff"/><stop offset="1" stop-color="#fff" stop-opacity="0"/></linearGradient><path fill="url(#g)" d="M191 345c-19 0-39-9-53-24a75 75 0 01-17-60c6-51 54-87 109-127l33-25c36-27 56-49 44-71-4-6-12-10-21-10l5-1c14 0 26 6 32 12 9 9 15 23 14 39 0 19-9 48-48 82-19 17-38 31-55 44-41 32-73 57-77 88-2 15 2 29 11 39 7 8 17 13 28 14h-5z"/><g><linearGradient id="h" gradientUnits="userSpaceOnUse" x1="-29.5" y1="117.1" x2="130.9" y2="162.5"><stop offset="0" stop-color="#fff"/><stop offset="1" stop-color="#fff" stop-opacity="0"/></linearGradient><path fill="url(#h)" d="M395 170L278 53a38 38 0 00-54 0L107 170a38 38 0 000 54l117 116c7 8 17 12 27 12s20-4 27-12l117-116c7-8 11-17 11-27 0-11-4-20-11-27zm-8 46L271 333c-6 5-12 8-20 8-7 0-14-3-19-8L115 216a27 27 0 010-39L232 61a27 27 0 0139 0l116 116a27 27 0 010 39z"/><linearGradient id="i" gradientUnits="userSpaceOnUse" x1="525.4" y1="234.5" x2="379.8" y2="214.4"><stop offset="0" stop-color="#fff"/><stop offset="1" stop-color="#fff" stop-opacity="0"/></linearGradient><path fill="url(#i)" d="M395 170L278 53a38 38 0 00-54 0L107 170a38 38 0 000 54l117 116c7 8 17 12 27 12s20-4 27-12l117-116c7-8 11-17 11-27 0-11-4-20-11-27zm-8 46L271 333c-6 5-12 8-20 8-7 0-14-3-19-8L115 216a27 27 0 010-39L232 61a27 27 0 0139 0l116 116a27 27 0 010 39z"/></g></g></svg>